<mxfile host="app.diagrams.net" modified="2023-05-24T09:35:43.494Z" agent="Mozilla/5.0 (Windows NT 10.0; Win64; x64) AppleWebKit/537.36 (KHTML, like Gecko) Chrome/113.0.0.0 Safari/537.36 Edg/113.0.1774.50" etag="E2GeI7jMGIIKJiVq-ZEi" version="21.3.3" type="github">
  <diagram name="第 1 页" id="CIwELvpGnyn4pziIGvkc">
    <mxGraphModel dx="1006" dy="657" grid="1" gridSize="10" guides="1" tooltips="1" connect="1" arrows="1" fold="1" page="1" pageScale="1" pageWidth="827" pageHeight="1169" math="0" shadow="0">
      <root>
        <mxCell id="0" />
        <mxCell id="1" parent="0" />
        <mxCell id="zjtfCZXlDc47qD0Vob9G-7" value="" style="endArrow=none;dashed=1;html=1;rounded=0;fontSize=12;startSize=8;endSize=8;curved=1;" edge="1" parent="1">
          <mxGeometry width="50" height="50" relative="1" as="geometry">
            <mxPoint x="380" y="585" as="sourcePoint" />
            <mxPoint x="380" y="335" as="targetPoint" />
          </mxGeometry>
        </mxCell>
        <mxCell id="zjtfCZXlDc47qD0Vob9G-1" value="&lt;font style=&quot;font-size: 15px;&quot;&gt;modprobe&lt;/font&gt;" style="rounded=1;whiteSpace=wrap;html=1;" vertex="1" parent="1">
          <mxGeometry x="130" y="390" width="90" height="40" as="geometry" />
        </mxCell>
        <mxCell id="zjtfCZXlDc47qD0Vob9G-3" value="&lt;span style=&quot;font-size: 15px;&quot;&gt;insmod&lt;/span&gt;" style="rounded=1;whiteSpace=wrap;html=1;" vertex="1" parent="1">
          <mxGeometry x="130" y="450" width="90" height="40" as="geometry" />
        </mxCell>
        <mxCell id="zjtfCZXlDc47qD0Vob9G-4" value="&lt;span style=&quot;font-size: 15px;&quot;&gt;……&lt;/span&gt;" style="rounded=1;whiteSpace=wrap;html=1;" vertex="1" parent="1">
          <mxGeometry x="130" y="510" width="90" height="40" as="geometry" />
        </mxCell>
        <mxCell id="zjtfCZXlDc47qD0Vob9G-12" style="edgeStyle=none;curved=1;rounded=0;orthogonalLoop=1;jettySize=auto;html=1;exitX=1;exitY=0.5;exitDx=0;exitDy=0;entryX=0;entryY=0.5;entryDx=0;entryDy=0;fontSize=12;startSize=8;endSize=8;" edge="1" parent="1" source="zjtfCZXlDc47qD0Vob9G-5" target="zjtfCZXlDc47qD0Vob9G-10">
          <mxGeometry relative="1" as="geometry" />
        </mxCell>
        <mxCell id="zjtfCZXlDc47qD0Vob9G-5" value="&lt;font style=&quot;font-size: 18px;&quot;&gt;kmod&lt;/font&gt;" style="rounded=1;whiteSpace=wrap;html=1;" vertex="1" parent="1">
          <mxGeometry x="270" y="450" width="90" height="40" as="geometry" />
        </mxCell>
        <mxCell id="zjtfCZXlDc47qD0Vob9G-6" value="" style="shape=curlyBracket;whiteSpace=wrap;html=1;rounded=1;flipH=1;labelPosition=right;verticalLabelPosition=middle;align=left;verticalAlign=middle;fontSize=16;" vertex="1" parent="1">
          <mxGeometry x="240" y="410" width="20" height="120" as="geometry" />
        </mxCell>
        <mxCell id="zjtfCZXlDc47qD0Vob9G-16" style="edgeStyle=none;curved=1;rounded=0;orthogonalLoop=1;jettySize=auto;html=1;exitX=1;exitY=0.5;exitDx=0;exitDy=0;entryX=0;entryY=0.5;entryDx=0;entryDy=0;fontSize=12;startSize=8;endSize=8;" edge="1" parent="1" source="zjtfCZXlDc47qD0Vob9G-10" target="zjtfCZXlDc47qD0Vob9G-13">
          <mxGeometry relative="1" as="geometry" />
        </mxCell>
        <mxCell id="zjtfCZXlDc47qD0Vob9G-10" value="&lt;font style=&quot;font-size: 18px;&quot;&gt;finit_module&lt;/font&gt;" style="rounded=1;whiteSpace=wrap;html=1;fontSize=16;" vertex="1" parent="1">
          <mxGeometry x="410" y="450" width="120" height="40" as="geometry" />
        </mxCell>
        <mxCell id="zjtfCZXlDc47qD0Vob9G-17" style="edgeStyle=none;curved=1;rounded=0;orthogonalLoop=1;jettySize=auto;html=1;exitX=0.5;exitY=1;exitDx=0;exitDy=0;entryX=0.5;entryY=0;entryDx=0;entryDy=0;fontSize=12;startSize=8;endSize=8;" edge="1" parent="1" source="zjtfCZXlDc47qD0Vob9G-13" target="zjtfCZXlDc47qD0Vob9G-14">
          <mxGeometry relative="1" as="geometry" />
        </mxCell>
        <mxCell id="zjtfCZXlDc47qD0Vob9G-13" value="&lt;font style=&quot;font-size: 16px;&quot;&gt;load_module&lt;/font&gt;" style="rounded=1;whiteSpace=wrap;html=1;fontSize=16;" vertex="1" parent="1">
          <mxGeometry x="620" y="370" width="100" height="40" as="geometry" />
        </mxCell>
        <mxCell id="zjtfCZXlDc47qD0Vob9G-18" style="edgeStyle=none;curved=1;rounded=0;orthogonalLoop=1;jettySize=auto;html=1;exitX=0.5;exitY=1;exitDx=0;exitDy=0;entryX=0.5;entryY=0;entryDx=0;entryDy=0;fontSize=12;startSize=8;endSize=8;" edge="1" parent="1" source="zjtfCZXlDc47qD0Vob9G-14" target="zjtfCZXlDc47qD0Vob9G-15">
          <mxGeometry relative="1" as="geometry" />
        </mxCell>
        <mxCell id="zjtfCZXlDc47qD0Vob9G-14" value="simplify_symbols" style="rounded=1;whiteSpace=wrap;html=1;fontSize=16;" vertex="1" parent="1">
          <mxGeometry x="600" y="430" width="140" height="40" as="geometry" />
        </mxCell>
        <mxCell id="zjtfCZXlDc47qD0Vob9G-24" style="edgeStyle=none;curved=1;rounded=0;orthogonalLoop=1;jettySize=auto;html=1;exitX=0.5;exitY=1;exitDx=0;exitDy=0;fontSize=12;startSize=8;endSize=8;" edge="1" parent="1" source="zjtfCZXlDc47qD0Vob9G-15" target="zjtfCZXlDc47qD0Vob9G-19">
          <mxGeometry relative="1" as="geometry" />
        </mxCell>
        <mxCell id="zjtfCZXlDc47qD0Vob9G-15" value="SHN_UNDEF: resolve_symbol_wait" style="rounded=1;whiteSpace=wrap;html=1;fontSize=16;" vertex="1" parent="1">
          <mxGeometry x="535" y="490" width="270" height="40" as="geometry" />
        </mxCell>
        <mxCell id="zjtfCZXlDc47qD0Vob9G-25" style="edgeStyle=none;curved=1;rounded=0;orthogonalLoop=1;jettySize=auto;html=1;exitX=0.5;exitY=1;exitDx=0;exitDy=0;fontSize=12;startSize=8;endSize=8;" edge="1" parent="1" source="zjtfCZXlDc47qD0Vob9G-19" target="zjtfCZXlDc47qD0Vob9G-20">
          <mxGeometry relative="1" as="geometry" />
        </mxCell>
        <mxCell id="zjtfCZXlDc47qD0Vob9G-19" value="resolve_symbol" style="rounded=1;whiteSpace=wrap;html=1;fontSize=16;" vertex="1" parent="1">
          <mxGeometry x="605" y="550" width="130" height="40" as="geometry" />
        </mxCell>
        <mxCell id="zjtfCZXlDc47qD0Vob9G-26" style="edgeStyle=none;curved=1;rounded=0;orthogonalLoop=1;jettySize=auto;html=1;exitX=0.5;exitY=1;exitDx=0;exitDy=0;entryX=0.5;entryY=0;entryDx=0;entryDy=0;fontSize=12;startSize=8;endSize=8;" edge="1" parent="1" source="zjtfCZXlDc47qD0Vob9G-20" target="zjtfCZXlDc47qD0Vob9G-21">
          <mxGeometry relative="1" as="geometry" />
        </mxCell>
        <mxCell id="zjtfCZXlDc47qD0Vob9G-20" value="find_symbol" style="rounded=1;whiteSpace=wrap;html=1;fontSize=16;" vertex="1" parent="1">
          <mxGeometry x="620" y="610" width="100" height="40" as="geometry" />
        </mxCell>
        <mxCell id="zjtfCZXlDc47qD0Vob9G-27" style="edgeStyle=none;curved=1;rounded=0;orthogonalLoop=1;jettySize=auto;html=1;exitX=0.5;exitY=1;exitDx=0;exitDy=0;entryX=0.5;entryY=0;entryDx=0;entryDy=0;fontSize=12;startSize=8;endSize=8;" edge="1" parent="1" source="zjtfCZXlDc47qD0Vob9G-21" target="zjtfCZXlDc47qD0Vob9G-22">
          <mxGeometry relative="1" as="geometry" />
        </mxCell>
        <mxCell id="zjtfCZXlDc47qD0Vob9G-21" value="each_symbol_section" style="rounded=1;whiteSpace=wrap;html=1;fontSize=16;" vertex="1" parent="1">
          <mxGeometry x="585" y="670" width="170" height="40" as="geometry" />
        </mxCell>
        <mxCell id="zjtfCZXlDc47qD0Vob9G-22" value="each_symbol_in_section" style="rounded=1;whiteSpace=wrap;html=1;fontSize=16;" vertex="1" parent="1">
          <mxGeometry x="572.5" y="730" width="195" height="40" as="geometry" />
        </mxCell>
        <mxCell id="zjtfCZXlDc47qD0Vob9G-28" style="edgeStyle=none;curved=1;rounded=0;orthogonalLoop=1;jettySize=auto;html=1;exitX=1;exitY=0;exitDx=0;exitDy=0;entryX=0;entryY=0.5;entryDx=0;entryDy=0;fontSize=12;startSize=8;endSize=8;" edge="1" parent="1" source="zjtfCZXlDc47qD0Vob9G-23" target="zjtfCZXlDc47qD0Vob9G-21">
          <mxGeometry relative="1" as="geometry" />
        </mxCell>
        <mxCell id="zjtfCZXlDc47qD0Vob9G-29" style="edgeStyle=none;curved=1;rounded=0;orthogonalLoop=1;jettySize=auto;html=1;exitX=1;exitY=1;exitDx=0;exitDy=0;entryX=0;entryY=0.5;entryDx=0;entryDy=0;fontSize=12;startSize=8;endSize=8;" edge="1" parent="1" source="zjtfCZXlDc47qD0Vob9G-23" target="zjtfCZXlDc47qD0Vob9G-22">
          <mxGeometry relative="1" as="geometry" />
        </mxCell>
        <mxCell id="zjtfCZXlDc47qD0Vob9G-23" value="find_export_symbol_in_section" style="rounded=1;whiteSpace=wrap;html=1;fontSize=16;" vertex="1" parent="1">
          <mxGeometry x="290" y="700" width="240" height="40" as="geometry" />
        </mxCell>
      </root>
    </mxGraphModel>
  </diagram>
</mxfile>
